<svg version="1.2" xmlns="http://www.w3.org/2000/svg" viewBox="0 0 966 366" width="966" height="366">
	<style>
		.s0 { fill: #be1b1b } 
		.s1 { fill: #e9e9ec } 
	</style>
	<g id="Folder 1">
		<path id="Path 32" class="s0" d="m631.81 303.39c-1.32 1.27-1.68 3.54-1.62 10.34 0.05 4.79 0.55 9.87 1.12 11.29l1.04 2.59 309.05-0.24c2.81-4.09 3.12-6.85 2.88-13.78-0.27-7.73-0.63-9.35-2.38-10.61-1.78-1.27-23.74-1.46-155.23-1.35-137.81 0.12-153.33 0.3-154.86 1.76z"/>
		<path id="Path 34" class="s0" d="m23.09 303.34c-1.77 0.94-1.97 2.18-1.84 11.6 0.09 7.11 0.57 10.97 1.47 11.85 1.07 1.04 29.93 1.27 141.91 1.16 124-0.13 140.76-0.33 142.13-1.71 1.21-1.22 1.47-3.74 1.22-11.6-0.26-7.97-0.69-10.32-2.08-11.35-1.39-1.05-30.2-1.28-141.28-1.16-92.71 0.1-140.21 0.51-141.53 1.21z"/>
		<path id="Path 55" class="s0" d="m787.8 189.85c-1.7 1.04-7.75 7-13.43 13.24-5.68 6.24-16.83 18.71-24.78 27.72-7.95 9-15.04 17.23-15.75 18.3-0.71 1.06-1.06 2.4-0.77 2.97 0.29 0.58 4.82 1.03 10.33 1.02l9.82-0.01c25.01-28.45 33.38-37.76 34.73-39.04 2.16-2.05 2.67-2.16 4.26-0.86 1 0.81 3.86 5.58 6.36 10.59 2.82 5.66 4.3 9.81 3.89 10.93-0.58 1.57-2.15 1.81-12.04 1.82-6.25 0-11.95 0.22-12.66 0.48-0.71 0.26-4 3.63-7.3 7.5-4.37 5.11-5.64 7.23-4.65 7.78 0.75 0.42 16.25 0.75 34.44 0.74 18.19-0.02 33.78-0.45 34.63-0.96 1.32-0.78 0.99-2.06-2.15-8.51-2.04-4.17-8.71-17.11-14.82-28.76-6.11-11.65-12.48-22.46-14.15-24.02-2.43-2.27-4.02-2.84-7.95-2.83-2.93 0-6.16 0.77-8.01 1.9z"/>
		<path id="Path 56" class="s0" d="m509.27 190.23c-0.58 1.13-3.12 13.58-5.64 27.65-2.52 14.07-4.72 27.68-4.89 30.24l-0.3 4.65 62.53 0.47c9.66-10.82 12.45-14.55 12.43-15.26-0.03-0.99-5.4-1.28-23.29-1.27-13.1 0.01-24.39-0.43-25.85-1.01-1.42-0.57-2.6-1.85-2.63-2.85-0.02-0.99 0.56-2.34 1.29-3 0.88-0.79 7.84-1.33 20.31-1.57l18.96-0.37c9.45-10.02 11.96-13.39 11.67-13.96-0.32-0.64-8.79-1.03-22.22-1.02-12.41 0.01-22.59-0.42-23.78-1.01-1.13-0.57-2.06-1.5-2.07-2.07 0-0.57 0.73-1.73 1.63-2.58 1.32-1.27 5.28-1.56 21.44-1.61l19.83-0.06c9.96-10.75 12.87-14.46 12.88-15.17 0.01-0.71-0.67-1.52-1.53-1.81-0.85-0.28-16.88-0.5-35.63-0.49-33.03 0.03-34.11 0.09-35.14 2.1z"/>
		<path id="Path 60" class="s0" d="m863.6 192.29c-2.88 2.98-6.34 6.94-7.69 8.79-1.36 1.85-2.23 3.82-1.94 4.39 0.32 0.65 11.12 1.03 29.2 1.03 20.98-0.01 29.37 0.34 31.26 1.29 1.43 0.72 2.73 2.22 2.91 3.34 0.17 1.13-0.69 2.98-1.91 4.11-2.1 1.95-4.06 2.11-33.09 2.61-23.69 0.42-31.16 0.86-32.19 1.91-0.74 0.76-2.36 7.04-3.62 13.96-1.25 6.92-2.29 14.1-2.31 15.95-0.03 2.64 0.52 3.58 2.55 4.39 1.42 0.56 5.49 1.05 9.04 1.07 4.7 0.03 7.1-0.47 8.82-1.82 1.63-1.28 2.58-3.46 3.09-7.09 0.41-2.88 1.44-6.05 2.29-7.03 1.32-1.52 3.5-1.78 14.73-1.75l13.18 0.04 10.89 16.01c12.8 1.15 19.01 1.14 22.06 0.73 3.05-0.41 5.72-1.1 5.94-1.52 0.22-0.43-0.15-1.82-0.81-3.1-0.66-1.28-3.46-5.12-6.21-8.53-2.76-3.4-5.01-6.77-5.01-7.49 0.01-0.71 2.1-2.45 4.66-3.87 2.67-1.49 5.96-4.57 7.74-7.25 1.71-2.56 3.58-6.86 4.18-9.56 0.59-2.7 0.75-6.31 0.37-8.01-0.39-1.71-1.37-4.5-2.19-6.2-0.82-1.71-3.2-4.34-5.29-5.86-2.1-1.52-6.83-3.49-10.53-4.37-5.08-1.22-12.59-1.61-30.81-1.61l-24.09 0.01z"/>
		<path id="Path 61" class="s0" d="m679.03 194.75c-4.46 4.61-7.39 8.49-7.23 9.57 0.23 1.57 1.87 1.87 12.36 2.31 6.65 0.28 12.57 0.98 13.17 1.54 0.76 0.72 0.61 4.48-0.5 12.41-0.87 6.25-2.27 15.56-3.12 20.67-0.85 5.12-1.29 10.12-0.99 11.11q0.55 1.82 3.91 1.89c1.85 0.05 6.15 0.02 9.56-0.06 3.59-0.08 6.64-0.69 7.24-1.45 0.57-0.71 1.82-5.46 2.78-10.54 0.97-5.08 2.54-13.89 3.49-19.57 0.95-5.69 2.37-11.62 3.14-13.18 1.39-2.82 1.5-2.85 11.74-2.85l10.34-0.01c8.98-8.42 12.47-12.14 13.54-13.71 1.59-2.32 1.71-3.14 0.66-4.44-1.12-1.38-6.01-1.58-36.94-1.52l-35.65 0.07z"/>
		<filter id="f0">
			<feFlood flood-color="#000000" flood-opacity="1" />
			<feBlend mode="normal" in2="SourceGraphic"/>
			<feComposite in2="SourceAlpha" operator="in" />
		</filter>
		<g id="Folder 2" filter="url(#f0)">
			<path id="Path 37" class="s1" d="m528.08 278.49c0.19 0.8 5.94 7.59 12.77 15.1 6.82 7.51 12.87 14.28 13.44 15.06 0.77 1.05 0.36 1.89-1.54 3.23-1.42 0.99-9.21 7.05-17.31 13.46-8.09 6.41-14.72 12.12-14.72 12.69 0 0.56-0.34 0.81-0.77 0.53-0.43-0.27-1.59 0.31-2.59 1.3-0.99 0.98-1.46 2.15-1.03 2.59 0.43 0.44 5.43 0.79 11.12 0.78 8-0.03 10.91-0.43 12.91-1.79 1.43-0.97 7.24-5.55 12.92-10.18 5.68-4.62 10.79-8.72 11.36-9.09 0.57-0.38 5.11 4.19 10.09 10.14l9.05 10.84c20.83-0.02 27.07-0.37 27.31-0.8 0.24-0.43-6.02-7.98-13.92-16.79-7.9-8.8-14.27-16.3-14.15-16.66 0.12-0.35 8.7-7.22 19.07-15.26 10.37-8.03 18.85-15.07 18.85-15.64 0-0.63-4.75-1.03-12.15-1.03l-12.14-0.01c-10.81 8.84-13.93 11.99-13.92 12.7 0.02 0.71-0.33 0.96-0.77 0.55-0.44-0.4-2.67 0.86-4.94 2.82-2.27 1.95-4.6 3.57-5.16 3.6-0.57 0.03-4.76-4.39-9.31-9.83l-8.28-9.88c-24.14 0.11-26.48 0.38-26.19 1.57z"/>
			<path id="Path 39" class="s1" d="m353.68 281.04c-0.36 2.14-1.79 9.7-3.18 16.8-1.38 7.11-2.73 14.55-3 16.54-0.26 1.99-1.39 8.85-2.52 15.25-1.12 6.4-1.8 12.1-1.52 12.66 0.29 0.57 4.47 1.03 9.3 1.03 5.17 0 8.79-0.43 8.79-1.04 0-0.57 0.35-0.84 0.77-0.6 0.43 0.25 1.47-3.36 2.31-8.01 0.84-4.65 1.54-9.38 1.54-10.52 0.01-1.13 0.71-2.51 1.56-3.05 0.86-0.54 9.46-1.11 19.13-1.27l17.57-0.28c5.94-6.07 7.33-8.29 6.93-8.86-0.44-0.6-0.21-0.71 0.55-0.25 0.8 0.47 2.1-0.32 3.4-2.08 1.15-1.57 2.08-3.2 2.06-3.62-0.02-0.43-10.5-0.77-23.29-0.76l-23.26 0.02c-0.4-4.85-0.08-6.71 0.46-7.27 0.57-0.58 9.18-1.01 20.42-1.02l19.43-0.01c10.8-11.32 14.06-15.27 14.2-16.09 0.22-1.28-4.89-1.49-35.37-1.47l-35.62 0.03z"/>
			<path id="Path 40" fill-rule="evenodd" class="s1" d="m482.43 276.78c4.27 0.22 9.85 0.85 12.41 1.4 2.56 0.55 6.41 1.79 8.56 2.77 2.15 0.99 3.9 2.14 3.88 2.56-0.02 0.43 0.31 0.56 0.74 0.3 0.43-0.27 2.26 1.01 4.08 2.84 1.83 1.82 4.04 5.06 4.92 7.19 0.88 2.13 1.6 6.78 1.6 10.34-0.01 3.55-0.61 8.78-1.35 11.63-0.73 2.84-2.3 6.79-3.49 8.78-1.19 1.99-4.06 5.37-6.39 7.5-2.33 2.14-4.7 3.88-5.27 3.88-0.57 0-1.25-0.11-1.51-0.25-0.26-0.15-1.07 0.52-1.81 1.48-0.73 0.96-4.36 2.53-8.05 3.48-3.69 0.96-11.14 2.04-16.54 2.41-5.4 0.36-14 0.36-19.12-0.01-5.67-0.41-11.72-1.6-15.5-3.03-3.98-1.5-7.79-3.94-10.6-6.8-2.58-2.61-4.19-5.1-3.88-6.01 0.28-0.85-0.07-1.7-0.78-1.89-0.92-0.25-1.3-3.26-1.3-10.51-0.01-7.26 0.36-10.26 1.28-10.51 0.71-0.19 1.06-0.81 0.78-1.38-0.29-0.56 0.45-3.01 1.63-5.42 1.19-2.42 3.63-5.89 5.42-7.72 1.8-1.83 3.62-3.11 4.05-2.85 0.42 0.27 0.77 0.02 0.77-0.55 0-0.57 1.74-1.9 3.88-2.96 2.13-1.06 6.19-2.7 9.04-3.64 2.84-0.94 9.58-2.1 14.98-2.57 5.4-0.48 13.31-0.69 17.57-0.46zm-31.38 20.78c-2.37 1.04-4.63 3.02-5.55 4.86-0.85 1.71-1.68 5.66-1.84 8.79-0.18 3.45 0.28 6.8 1.16 8.53 0.93 1.79 3.1 3.44 5.87 4.46 3.44 1.27 7.72 1.54 19.89 1.27 13-0.28 16.18-0.67 19.64-2.41 2.39-1.2 4.74-3.37 5.58-5.17 0.8-1.71 1.67-5.89 1.94-9.31 0.44-5.44 0.19-6.55-1.97-9.09-1.44-1.69-4.19-3.29-6.6-3.85-2.28-0.52-9.95-0.9-17.06-0.84-7.11 0.05-13.85 0.3-14.99 0.55-1.13 0.24-3.86 1.24-6.07 2.21z"/>
			<path id="Path 57" class="s1" d="m237.92 196.4c-4.52 4.42-8.11 8.38-7.98 8.79 0.13 0.41 6.87 0.74 14.97 0.72l14.73-0.02c-1.3 8.43-3.04 18.33-4.7 27.42-1.66 9.1-3.02 17.36-3.02 18.35 0 1.6 1.16 1.81 9.82 1.8 9.34 0 9.84-0.12 10.31-2.33 0.28-1.28 1.2-6.4 2.06-11.37 0.86-4.98 1.33-9.51 1.05-10.08-0.29-0.57-0.17-1.21 0.25-1.43 0.43-0.21 1.42-4.29 2.21-9.04 0.79-4.76 1.83-9.7 2.32-10.98 0.84-2.21 1.42-2.33 12-2.33h11.11c11.59-11.63 14.96-15.59 14.96-16.3 0.01-1.01-7.86-1.29-35.93-1.27l-35.94 0.03z"/>
			<path id="Path 59" class="s1" d="m142.1 189.26c-0.17 0.46-1.11 4.99-2.08 10.08-0.98 5.09-2.06 11.35-2.41 13.91-0.36 2.56-0.87 5.81-1.15 7.23-0.28 1.42-0.73 5.61-1.01 9.31-0.43 5.71-0.13 7.41 1.99 11.36 1.55 2.91 4.2 5.72 7.06 7.5 2.51 1.57 5.97 2.97 7.67 3.1 1.71 0.13 3.34 0.62 3.62 1.08 0.29 0.47 6.57 1.1 13.96 1.4 7.61 0.32 15.9 0.1 19.12-0.51 3.12-0.59 8.24-2.01 11.37-3.15 3.48-1.28 7.57-3.91 10.59-6.81 2.69-2.6 5.77-6.71 6.84-9.13 1.06-2.41 3.35-11.6 5.07-20.41 1.73-8.82 3.41-18.24 3.73-20.94l0.59-4.91c-15.22 0.01-19.85 0.37-20.11 0.79-0.26 0.43-1.9 9.15-3.63 19.39-1.74 10.23-3.73 19.75-4.42 21.15-0.69 1.4-2.89 3.61-4.88 4.91-2.33 1.53-5.99 2.61-10.33 3.05-3.7 0.37-10.67 0.18-15.51-0.44-6.05-0.77-9.33-1.7-10.54-2.99-1.14-1.21-1.8-3.71-1.86-7.04-0.05-2.85 1.3-11.92 3.01-20.16 1.71-8.25 3.12-15.8 3.13-16.8 0.02-1.6-1.12-1.81-9.74-1.8-5.38 0-9.91 0.38-10.08 0.83z"/>
			<path id="Path 63" fill-rule="evenodd" class="s1" d="m360.4 187.45c3.13-0.08 9.17 0.3 13.44 0.85 4.26 0.55 9.84 1.67 12.4 2.5 2.56 0.83 6.75 3.3 9.31 5.49 2.56 2.19 5.41 5.81 6.34 8.05 0.98 2.35 1.72 7.1 1.76 11.29 0.03 3.98-0.64 9.56-1.51 12.4-0.87 2.85-3.16 7.38-5.1 10.09-1.94 2.7-5.5 6.16-7.91 7.68-2.42 1.53-7.88 3.9-12.14 5.29-5.93 1.92-10.92 2.64-21.19 3.07-8.34 0.35-16.19 0.1-20.67-0.67-3.98-0.68-9.57-2.3-12.41-3.6-2.84-1.31-6.92-4.07-9.05-6.14-2.4-2.33-4.32-5.43-5.03-8.15-0.63-2.42-0.94-7.88-0.69-12.15 0.3-5.12 1.3-9.65 2.95-13.35 1.63-3.67 4.43-7.34 8.16-10.67 3.33-2.98 8.04-5.94 11.37-7.15 3.12-1.14 7.08-2.22 8.78-2.4 1.71-0.18 3.8-0.59 4.65-0.93 0.85-0.33 3.65-0.77 6.2-0.97 2.56-0.21 7.21-0.45 10.34-0.53zm-28.17 23.33c-1.01 0.99-2.35 4.13-2.98 6.97-0.62 2.85-0.85 6.8-0.51 8.79 0.34 1.99 1.69 4.65 2.98 5.91 1.44 1.4 4.78 2.75 8.56 3.47 3.81 0.73 10.59 0.93 17.57 0.54 6.26-0.35 13.12-1.11 15.25-1.68 2.13-0.57 5.03-2.43 6.45-4.14 1.71-2.05 2.8-4.95 3.23-8.53 0.35-2.99 0.18-6.83-0.37-8.53-0.56-1.71-2.28-4.03-3.83-5.17-2.49-1.83-4.66-2.09-19.01-2.28-12.07-0.17-17.4 0.17-20.86 1.31-2.56 0.85-5.48 2.35-6.48 3.34z"/>
			<path id="Path 65" class="s1" d="m87.52 188.41c-0.85 0.53-1.89 0.76-2.32 0.52-0.43-0.25-1.59-0.04-2.58 0.47-1 0.5-4.83 4.02-8.53 7.82-3.69 3.79-6.59 7.1-6.45 7.35 0.14 0.25-0.79 1.32-2.07 2.37-1.27 1.05-10.45 11.1-20.39 22.33-9.94 11.23-18.77 21.33-19.62 22.44-1.52 1.98-1.31 2.02 10.33 1.95l11.89-0.08c28.81-32.65 37.53-41.95 37.95-41.73 0.43 0.22 3.34 5.52 6.47 11.77 3.13 6.25 5.7 11.83 5.7 12.4 0 0.63-5.05 1.02-13.18 0.99l-13.18-0.03c-10.8 12.09-13.94 15.84-13.94 16.12 0 0.29 16.51 0.51 36.69 0.49 20.18-0.01 36.71-0.38 36.72-0.8 0.02-0.43-5.61-11.7-12.51-25.06-6.89-13.35-13.07-24.62-13.74-25.04-0.66-0.41-0.85-0.76-0.43-0.77 0.43-0.01-0.39-2.34-1.81-5.18-1.42-2.85-3.64-5.82-4.92-6.62-1.28-0.79-3.72-1.72-5.42-2.06-1.71-0.34-3.8-0.18-4.66 0.35z"/>
			<path id="Path 88" fill-rule="evenodd" class="s1" d="m544.78 23.42c11.37 0.25 26.25 0.92 33.07 1.5 6.83 0.59 22.18 2.44 34.12 4.13 11.94 1.69 30.78 4.92 41.86 7.18 11.09 2.26 25.74 5.51 32.57 7.21 6.82 1.71 19.15 4.97 27.39 7.24 8.25 2.27 20.34 5.76 26.88 7.77 6.54 2 22.83 7.57 36.19 12.38 13.36 4.8 28.02 9.63 32.57 10.72 4.54 1.1 15.48 2.67 24.29 3.5 8.81 0.83 32.07 1.96 51.68 2.52 32.25 0.92 36.58 0.85 45.29-0.78 5.3-0.99 9.81-1.57 10.03-1.28 0.21 0.28-0.45 1.91-1.48 3.62-1.03 1.7-3.39 8.22-5.24 14.47-1.86 6.26-4.1 13.93-4.99 17.06-1.36 4.82-1.41 6.7-0.33 12.4 0.71 3.7 2.37 11.37 3.69 17.05 1.33 5.69 2.24 10.8 2.03 11.37-0.22 0.6-4.79 1.04-21.12 1.05l-3.1-8.78c-1.71-4.83-3.9-9.67-4.88-10.74-0.97-1.08-3.63-2.81-5.91-3.86-2.4-1.1-8.68-2.31-14.99-2.9-5.96-0.56-16.9-1.03-24.29-1.05-7.39-0.02-14.51-0.38-15.83-0.8-1.61-0.51-2.29-1.41-2.07-2.76 0.21-1.25 1.5-2.29 3.43-2.74 1.7-0.41 11.7-2.68 22.22-5.05 10.51-2.38 19.93-4.52 20.92-4.77 1-0.25 1.64-0.81 1.43-1.23-0.22-0.43-3.13-1.56-6.47-2.52-3.34-0.95-10.72-2.45-16.41-3.32-5.68-0.87-25.92-3.19-44.96-5.17-19.05-1.97-41.38-4.76-49.62-6.2-8.25-1.44-19.41-3.34-24.81-4.22-5.4-0.89-15.4-1.63-22.23-1.65-8.75-0.02-13.92 0.46-17.57 1.65-2.84 0.93-6.22 2.73-7.51 4-1.3 1.28-2.35 2.79-2.34 3.36 0 0.57 3.16 1.62 7 2.34 3.85 0.71 14.79 1.75 24.31 2.3 9.52 0.55 19.76 1.53 22.74 2.17 2.99 0.64 7.75 2.17 10.6 3.4 2.84 1.23 5.47 2.68 5.85 3.22 0.42 0.61-12.86 1.29-35.14 1.79-19.71 0.44-69.55 0.83-110.76 0.86-41.22 0.03-134.36 0.45-206.98 0.93-72.63 0.48-131.93 1.25-131.79 1.72 0.14 0.46 5.15 2.92 11.12 5.46 5.97 2.54 11.44 5.41 12.16 6.38 0.72 0.97 1.31 2.11 1.3 2.54-0.01 0.42-1.07 0.51-2.35 0.19-1.27-0.33-11.16-1.92-21.96-3.55-10.8-1.62-25.92-3.7-33.6-4.61-7.67-0.92-23.92-1.98-36.09-2.36-18.44-0.58-22.07-0.46-21.71 0.71 0.24 0.77 6.34 5.19 13.55 9.81 7.22 4.62 15.05 10.26 17.41 12.53 2.36 2.28 4.95 5.41 5.76 6.98 0.81 1.56 1.47 3.3 1.47 3.87 0 0.57-1.28 0.16-2.85-0.9-1.56-1.06-5.86-3.45-9.56-5.3-3.7-1.85-10.68-4.94-15.51-6.88-4.83-1.94-12.05-4.26-16.03-5.16-5.06-1.14-10.18-1.47-17.05-1.1-6.18 0.32-12.31 1.36-16.54 2.8-3.69 1.26-14.03 5.86-22.98 10.23-8.94 4.37-16.52 7.72-16.83 7.43-0.32-0.28 0.14-2.26 1.02-4.39 0.87-2.13 3.8-6.03 6.5-8.66 3.09-3.01 8.72-6.64 15.23-9.83 5.69-2.78 10.92-5.05 11.63-5.05 0.71 0 1.64-0.54 2.07-1.21 0.58-0.9-1.17-1-6.98-0.41-4.27 0.44-11.47 1.66-16.02 2.7-4.55 1.05-12.92 3.49-18.6 5.42-5.69 1.94-14.29 5.5-19.12 7.91-4.83 2.42-12.73 7.33-17.56 10.9-4.83 3.58-10.41 7.04-12.4 7.7-1.99 0.66-6.64 1.2-10.33 1.19-3.7 0-10.57-0.59-15.26-1.3-5.48-0.82-8.54-1.75-8.53-2.57 0-0.71 3.15-3.57 6.98-6.35 3.84-2.77 9.53-6.68 12.66-8.67 3.12-2 12.65-7.14 21.18-11.44 8.52-4.29 20.61-9.88 26.86-12.42 6.25-2.53 15.55-5.81 20.67-7.27 5.11-1.47 13.02-3.42 17.57-4.33 4.54-0.92 19.08-3.05 32.29-4.73 13.22-1.68 36.01-4.22 50.65-5.65 14.63-1.42 35.68-3.06 46.77-3.63 11.08-0.57 22.71-1.47 25.83-2 3.13-0.52 7.78-1.52 10.34-2.21 2.56-0.69 9.3-3.93 14.98-7.22 5.68-3.28 16.84-9.56 24.8-13.97 7.95-4.4 19.34-10.24 25.31-12.97 5.97-2.73 16.66-7.27 23.77-10.1 7.1-2.82 16.63-6.35 21.18-7.84 4.55-1.49 15.24-4.59 23.77-6.89 8.52-2.31 20.85-5.09 27.38-6.19 6.54-1.1 17.24-2.78 23.77-3.72 6.54-0.95 18.63-2.1 26.88-2.56 8.24-0.47 24.29-0.65 35.66-0.4zm-48.05 25.26c-7.1 0.61-18.96 2-26.35 3.08-7.39 1.09-19.48 3.15-26.87 4.59-7.39 1.45-19.83 4.5-27.65 6.79-7.81 2.29-19.44 6.09-25.83 8.44-6.4 2.36-17.44 7.19-24.54 10.75-7.11 3.56-17.1 9.26-22.22 12.68-5.11 3.41-9.99 6.98-10.84 7.93-1.44 1.6-0.59 1.72 11.89 1.7l13.43-0.02c3.16-7.85 6.35-12.26 9.73-15.64 4.67-4.66 6.94-6.08 11.96-7.5 3.6-1.01 9.88-1.74 14.99-1.74 4.83 0 11.57 0.68 14.99 1.51 3.41 0.83 6.43 1.77 6.72 2.08 0.28 0.31-0.11 2.53-0.88 4.93-0.98 3.05-3.46 6.33-8.26 10.91l-6.87 6.54c140.19-0.95 189.95-1.72 201.04-2.31 11.08-0.59 26.66-1.85 34.62-2.8 7.96-0.94 15.63-2.13 17.06-2.63l2.58-0.91-4.66-5.13c3.66-4.58 3.9-5.65 3.1-7.24-0.57-1.14-1.5-2.07-2.07-2.07-0.57 0-4.17-1.45-8.01-3.24-3.84-1.78-13.96-4.99-22.49-7.13-8.53-2.14-21.09-4.82-27.91-5.97-6.82-1.14-17.06-2.68-22.74-3.42-6.56-0.85-22.05-1.34-42.38-1.33-18.93 0.01-37.55 0.58-45.48 1.38-7.39 0.75-25.87 3.09-41.06 5.2-18.62 2.59-28 3.5-28.79 2.81-0.64-0.57-0.89-1.62-0.54-2.33 0.34-0.71 3.06-1.94 6.05-2.74 2.98-0.8 10.77-2.65 17.31-4.12 6.54-1.47 18.39-3.86 26.35-5.32 7.96-1.46 22.61-3.65 32.56-4.87 14.9-1.84 23.55-2.23 49.09-2.21 22.11 0.01 34.72 0.49 43.93 1.66 7.11 0.9 16.41 2.37 20.68 3.28 4.26 0.9 9.61 1.82 11.89 2.04 2.27 0.23 10.88 2.67 19.12 5.44 8.25 2.76 18.23 6.61 22.19 8.55 3.96 1.94 8.09 4.69 9.16 6.11 1.34 1.76 1.76 3.48 1.33 5.42-0.34 1.57-2.36 4.49-4.49 6.5-2.82 2.66-3.38 3.64-2.07 3.62 1-0.02 3.27-1.32 5.05-2.88 1.78-1.57 4.34-4.82 5.68-7.24 2.01-3.62 2.21-4.69 1.15-6.07-0.71-0.92-4.32-3.45-8.02-5.62-3.69-2.17-10.21-5.33-14.47-7.02-4.27-1.69-15.2-4.94-24.3-7.22-9.1-2.29-24.22-5.16-33.6-6.38-13.6-1.78-23.44-2.29-48.58-2.5-17.34-0.14-33.15-0.08-35.14 0.14-1.99 0.22-9.43 0.91-16.54 1.52z"/>
		</g>
		<path id="Path 62" class="s0" d="m439.99 189.61c-4.26 1.29-10.31 3.99-13.43 6-3.13 2.01-7.37 5.94-9.44 8.73-2.07 2.8-4.5 7.29-5.42 9.99-0.91 2.7-1.64 7.59-1.6 10.86 0.03 3.28 0.92 8.02 1.97 10.59 1.06 2.56 3.73 6.51 5.94 8.78 2.21 2.27 6.33 5.26 9.15 6.63 4.47 2.18 7.29 2.61 22.18 3.36 9.38 0.47 20.04 0.5 23.68 0.06 6.57-0.79 6.69-0.86 13.22-8.03 3.62-3.99 6.58-7.94 6.57-8.79-0.01-0.86-1.31-1.85-2.89-2.22-1.58-0.37-12.87-0.71-25.09-0.75l-22.22-0.08c-6.34-4.45-8.54-7.05-9.08-8.8-0.53-1.7-0.69-4.14-0.34-5.42 0.34-1.28 2.36-4.22 4.49-6.54 2.71-2.94 5.43-4.66 9.04-5.7 3.58-1.03 10.49-1.49 22.48-1.49l17.32-0.01c12.29-12.63 14.49-15.65 14.26-17.06-0.31-2-1.21-2.08-26.68-2.26-24.75-0.18-26.83-0.05-34.11 2.15z"/>
		<path id="Path 66" class="s0" d="m596.34 187.03c-1.27 0.48-3.39 2.19-4.71 3.81-1.51 1.86-3.23 6.58-4.63 12.77-1.23 5.4-3.65 18.19-5.38 28.42-1.74 10.24-2.9 19.43-2.6 20.42 0.35 1.12 2.03 2.06 4.43 2.46 2.14 0.35 6.2 0.4 9.05 0.09 3.42-0.37 5.6-1.2 6.44-2.47 0.71-1.05 1.77-5.16 2.36-9.14 0.59-3.98 1.64-10.2 2.32-13.82 0.69-3.62 1.85-7.11 2.57-7.76 1.02-0.9 2.78 0.36 7.76 5.55 3.55 3.69 11.03 11.59 16.62 17.56l10.17 10.84c9.46-0.89 11.77-1.76 13.77-3.63 1.52-1.42 3.43-4.21 4.25-6.2 0.82-1.99 2.19-7.57 3.05-12.41 0.86-4.83 1.98-11.11 2.49-13.95 0.51-2.84 1.67-9.36 2.58-14.47 0.91-5.12 1.51-11.17 1.34-13.44l-0.32-4.14c-14.26-0.42-17.49-0.08-18.39 0.79-0.74 0.71-1.88 4.32-2.53 8.02-0.66 3.69-1.69 9.74-2.29 13.43-0.6 3.7-1.67 7.6-2.37 8.67-0.9 1.39-1.75 1.69-2.93 1.04-0.91-0.5-7.89-7.56-15.51-15.67-7.63-8.12-15.37-15.44-17.22-16.27-1.85-0.83-4.41-1.48-5.69-1.44-1.28 0.04-3.36 0.46-4.63 0.94z"/>
		<path id="Path 89" fill-rule="evenodd" class="s0" d="m484.89 105.96c24.44-0.02 34.68 0.11 22.74 0.29-11.94 0.17-31.94 0.19-44.45 0.03-12.5-0.16-2.74-0.3 21.71-0.32zm69.77-1.17c6.53 0 9.09 0.16 5.68 0.37-3.41 0.21-8.76 0.21-11.88 0.01-3.13-0.2-0.34-0.37 6.2-0.38zm-181.51-27.07c0.52-0.03 0.75 0.12 0.52 0.34-0.24 0.22-3.8 2.08-7.92 4.14-4.12 2.06-7.58 3.52-7.69 3.24-0.11-0.27 3.03-2.11 6.97-4.09 3.95-1.97 7.6-3.61 8.12-3.63zm178.88-28.47c13.65 0.26 30.16 1.13 36.7 1.93 6.53 0.8 15.37 2.19 19.64 3.09 4.26 0.9 9.61 1.82 11.89 2.04 2.27 0.23 10.88 2.67 19.12 5.44 8.25 2.76 18.23 6.61 22.19 8.55 3.96 1.94 8.09 4.69 9.16 6.11 1.34 1.76 1.76 3.48 1.33 5.42-0.34 1.57-2.36 4.49-4.49 6.5-2.82 2.66-3.38 3.64-2.07 3.62 1-0.02 3.55-1.53 9.56-6.67l-3.1 3.38c-1.7 1.86-6.35 4.98-10.33 6.93-3.98 1.95-8.16 3.52-9.3 3.49-1.74-0.04-1.65-0.21 3.1-2.01l-4.66-5.14 2.07-2.59c1.59-1.99 1.83-3.06 1.03-4.65-0.57-1.14-1.5-2.07-2.07-2.07-0.57 0-4.17-1.45-8.01-3.24-3.84-1.78-13.96-4.99-22.49-7.13-8.53-2.14-21.09-4.82-27.91-5.97-6.82-1.14-17.06-2.68-22.74-3.42-6.56-0.85-22.05-1.34-42.38-1.33-18.93 0.01-37.55 0.58-45.48 1.38-7.39 0.75-25.87 3.09-41.06 5.2-18.62 2.59-28 3.5-28.79 2.81-0.64-0.57-0.89-1.62-0.54-2.33 0.34-0.71 3.06-1.94 6.05-2.74 2.98-0.8 10.77-2.65 17.31-4.12 6.54-1.47 18.39-3.86 26.35-5.3 7.96-1.45 20.52-3.38 27.91-4.3 7.39-0.91 18.78-2.04 25.32-2.51 6.54-0.47 23.05-0.64 36.69-0.37zm72.62 4.55c0.71-0.06 4.43 0.68 8.27 1.63 3.83 0.95 6.51 1.87 5.94 2.04-0.57 0.17-4.29-0.57-8.27-1.64-3.98-1.07-6.65-1.98-5.94-2.03z"/>
	</g>
</svg>